<?xml version="1.0" encoding="UTF-8"?>
<svg id="Layer_2" data-name="Layer 2" xmlns="http://www.w3.org/2000/svg" viewBox="0 0 729.86 596.36">
  <defs>
    <style>
      .cls-1 {
        fill: #a02b2b;
      }

      .cls-1, .cls-2 {
        stroke-width: 0px;
      }

      .cls-2 {
        fill: #9b9b9b;
      }
    </style>
  </defs>
  <g id="Layer_1-2" data-name="Layer 1">
    <g id="Laag_2" data-name="Laag 2">
      <g id="Laag_1-2" data-name="Laag 1-2">
        <polygon class="cls-1" points="66.8 405.5 9.55 415.06 9.55 495.35 66.8 481.86 66.8 405.5"/>
        <rect class="cls-2" y="260.02" width="53.28" height="65.98"/>
        <polygon class="cls-2" points="86.66 179.69 47.52 174.14 47.52 116.07 86.66 126.41 86.66 179.69"/>
        <polygon class="cls-2" points="149.49 23.87 149.49 63.62 174.14 70.77 174.14 34.21 149.49 23.87"/>
        <polygon class="cls-2" points="241.73 0 241.73 23.87 259.2 32.6 259.2 7.94 241.73 0"/>
        <polygon class="cls-2" points="310.9 43.72 310.9 64.41 323.6 70.77 323.6 47.3 310.9 43.72"/>
        <polygon class="cls-2" points="363.39 136.75 363.39 151.07 369.72 155.04 369.72 141.55 363.39 136.75"/>
        <polygon class="cls-2" points="329.97 422.21 329.97 443.68 341.92 436.53 341.92 414.27 329.97 422.21"/>
        <polygon class="cls-2" points="259.2 504.12 259.2 535.14 280.66 526.37 280.66 495.35 259.2 504.12"/>
        <polygon class="cls-2" points="174.14 543.87 174.14 596.36 207.53 578.86 207.53 531.13 174.14 543.87"/>
        <polygon class="cls-2" points="86.66 519.21 86.66 583.62 128.02 568.52 128.02 508.09 86.66 519.21"/>
        <path class="cls-1" d="M230.07,283.96c.57,34.13,22.36,48.2,47.62,48.2,13.18.43,26.29-2.01,38.43-7.16l4.29,18.07c-14.6,6.11-30.33,9.05-46.16,8.62-42.94,0-68.31-28.12-68.31-69.99s24.69-74.89,65.12-74.89c45.33,0,57.25,39.9,57.25,65.41-.04,3.94-.33,7.87-.86,11.77l-97.4-.04ZM304.06,266.07c.29-16.07-6.58-41.04-34.99-41.04-25.51,0-36.71,23.54-38.71,41.04h73.71Z"/>
        <path class="cls-2" d="M359.74,247.53c0-14.31-.29-26.12-1.14-37.57h22.08l1.14,22.36h1.04c7.76-13.2,20.65-25.55,43.62-25.55,17.76-.22,33.65,11.02,39.36,27.84h.57c3.86-6.98,9.14-13.07,15.49-17.89,8.78-6.73,19.64-10.19,30.7-9.77,18.36,0,45.62,12.06,45.62,60.25v81.58h-25.08v-78.72c0-26.66-9.73-42.72-30.13-42.72-14.31,0-25.51,10.73-29.81,22.94-1.33,4.08-2.02,8.34-2.04,12.63v85.87h-24.65v-83.19c0-22.08-9.77-38.14-28.98-38.14-15.78,0-27.23,12.59-31.27,25.23-1.41,3.96-2.08,8.14-2,12.34v83.76h-24.65l.14-101.26Z"/>
        <path class="cls-2" d="M472.77,371.62c-.25,4.47-.5,9.45-.5,17v35.78c0,14.31-2.83,22.9-8.84,28.27-6.32,5.18-14.34,7.82-22.51,7.41-7.19.18-14.3-1.59-20.57-5.12l2.79-8.55c5.5,3.24,11.79,4.93,18.18,4.87,11.49,0,19.93-6.01,19.93-21.47v-6.91h-.25c-4.21,6.74-11.73,10.7-19.68,10.34-15.35,0-26.33-13.02-26.33-30.16,0-20.97,13.67-32.85,27.87-32.85,7.97-.47,15.49,3.71,19.29,10.73h.25l.54-9.34h9.84ZM461.14,396.02c.06-1.73-.16-3.46-.64-5.12-1.96-7.06-8.41-11.94-15.74-11.88-10.73,0-18.39,9.09-18.39,23.4,0,12.17,6.12,22.26,18.28,22.26,7.15-.04,13.46-4.7,15.6-11.52.61-1.94.92-3.97.89-6.01v-11.13Z"/>
        <path class="cls-2" d="M490.2,390.9c0-7.16,0-13.53-.54-19.29h9.84l.39,12.13h.5c2.18-7.75,9.1-13.21,17.14-13.53,1.08-.02,2.17.1,3.22.36v10.73c-1.27-.27-2.57-.41-3.86-.39-7.91,0-13.53,6.01-15.06,14.31-.32,1.74-.5,3.49-.54,5.26v32.95h-11.09v-42.54Z"/>
        <path class="cls-2" d="M586.8,402.03c0,22.9-15.85,32.88-30.81,32.88-16.75,0-29.66-12.27-29.66-31.84,0-20.72,13.56-32.85,30.7-32.85s29.77,12.88,29.77,31.81ZM537.71,402.68c0,13.56,7.8,23.79,18.78,23.79s18.82-10.09,18.82-24.04c0-10.48-5.26-23.79-18.53-23.79s-19.21,12.27-19.21,24.04h.14Z"/>
        <path class="cls-2" d="M652.64,416.63c0,6.37,0,12.02.5,16.85h-9.95l-.64-10.09h-.29c-4.22,7.26-12.04,11.66-20.43,11.52-9.73,0-21.47-5.37-21.47-27.12v-36.17h11.49v34.28c0,11.74,3.58,19.68,13.81,19.68,8.71.04,15.81-6.99,15.85-15.71,0-.1,0-.19,0-.29v-37.96h11.27l-.14,45.01Z"/>
        <path class="cls-2" d="M671.28,391.8c0-7.91-.25-14.31-.5-20.18h10.09l.54,10.73h.25c4.54-7.75,12.99-12.36,21.97-11.99,14.96,0,26.23,12.63,26.23,31.45,0,22.22-13.56,33.24-28.12,33.24-7.63.33-14.87-3.36-19.07-9.73h-.25v33.63h-11.13v-67.16ZM682.41,408.29c.03,1.55.19,3.1.5,4.62,1.94,7.75,8.9,13.18,16.89,13.17,11.91,0,18.78-9.7,18.78-23.9,0-12.42-6.51-23.01-18.39-23.01-8.18.21-15.18,5.94-17,13.92-.46,1.5-.73,3.05-.79,4.62v10.59Z"/>
      </g>
    </g>
  </g>
</svg>